<?xml version="1.0" encoding="UTF-8"?><svg id="Layer_1" xmlns="http://www.w3.org/2000/svg" viewBox="0 0 512 512"><defs><style>.cls-1{fill:#221f1f;}.cls-2{fill:#f90;}</style></defs><path id="path8" class="cls-2" d="M310.77,294.67c-26.44,19.49-64.77,29.89-97.76,29.89-46.27,0-87.92-17.11-119.43-45.57-2.48-2.24-.26-5.29,2.71-3.55,34.01,19.79,76.05,31.69,119.49,31.69,29.29,0,61.52-6.06,91.15-18.64,4.48-1.9,8.22,2.93,3.84,6.18"/><path id="path10" class="cls-2" d="M321.77,282.09c-3.37-4.32-22.34-2.04-30.86-1.03-2.59,.32-2.99-1.94-.65-3.57,15.11-10.64,39.91-7.57,42.8-4,2.89,3.58-.75,28.44-14.95,40.3-2.18,1.82-4.26,.85-3.29-1.56,3.19-7.96,10.34-25.81,6.95-30.14"/><path id="path12" class="cls-1" d="M291.5,202.42v-10.34c0-1.56,1.19-2.61,2.61-2.61h46.29c1.49,0,2.67,1.07,2.67,2.61v8.85c-.02,1.49-1.27,3.43-3.49,6.5l-23.98,34.24c8.91-.22,18.32,1.11,26.4,5.66,1.82,1.03,2.32,2.54,2.46,4.02v11.03c0,1.51-1.66,3.27-3.41,2.36-14.24-7.47-33.16-8.28-48.9,.08-1.6,.87-3.29-.87-3.29-2.38v-10.48c0-1.68,.02-4.56,1.7-7.11l27.79-39.85h-24.18c-1.49,0-2.67-1.05-2.67-2.59"/><path id="path14" class="cls-1" d="M122.66,266.92h-14.08c-1.35-.1-2.42-1.11-2.52-2.4v-72.27c0-1.45,1.21-2.59,2.71-2.59h13.13c1.37,.06,2.46,1.11,2.55,2.42v9.45h.26c3.43-9.13,9.86-13.39,18.54-13.39s14.32,4.26,18.28,13.39c3.41-9.13,11.15-13.39,19.45-13.39,5.9,0,12.36,2.44,16.3,7.9,4.46,6.08,3.55,14.91,3.55,22.66l-.02,45.61c0,1.45-1.21,2.61-2.71,2.61h-14.06c-1.41-.1-2.54-1.23-2.54-2.61v-38.3c0-3.05,.28-10.66-.4-13.55-1.05-4.85-4.2-6.22-8.28-6.22-3.41,0-6.97,2.28-8.42,5.92-1.45,3.64-1.31,9.74-1.31,13.84v38.3c0,1.45-1.21,2.61-2.71,2.61h-14.06c-1.43-.1-2.54-1.23-2.54-2.61l-.02-38.3c0-8.06,1.33-19.92-8.67-19.92s-9.72,11.57-9.72,19.92v38.3c0,1.45-1.21,2.61-2.71,2.61"/><path id="path16" class="cls-1" d="M382.93,188.14c20.9,0,32.2,17.94,32.2,40.76s-12.5,39.53-32.2,39.53-31.69-17.94-31.69-40.3,11.31-39.99,31.69-39.99m.12,14.76c-10.38,0-11.03,14.14-11.03,22.95s-.14,27.69,10.91,27.69,11.43-15.21,11.43-24.48c0-6.1-.26-13.39-2.1-19.17-1.58-5.03-4.73-6.99-9.21-6.99"/><path id="path18" class="cls-1" d="M442.22,266.92h-14.02c-1.41-.1-2.54-1.23-2.54-2.61l-.02-72.29c.12-1.33,1.29-2.36,2.71-2.36h13.05c1.23,.06,2.24,.89,2.52,2.02v11.05h.26c3.94-9.88,9.47-14.6,19.19-14.6,6.32,0,12.48,2.28,16.44,8.52,3.68,5.78,3.68,15.51,3.68,22.5v45.49c-.16,1.27-1.33,2.28-2.71,2.28h-14.12c-1.29-.1-2.36-1.05-2.5-2.28v-39.26c0-7.9,.91-19.47-8.81-19.47-3.43,0-6.58,2.3-8.14,5.78-1.98,4.42-2.24,8.81-2.24,13.69v38.92c-.02,1.45-1.25,2.61-2.75,2.61"/><g id="use28"><path id="path30" class="cls-1" d="M254.6,232.4v-3.05c-10.18,0-20.93,2.18-20.93,14.18,0,6.08,3.15,10.2,8.56,10.2,3.96,0,7.51-2.44,9.74-6.4,2.77-4.87,2.63-9.45,2.63-14.93m14.2,34.32c-.93,.83-2.28,.89-3.33,.34-4.67-3.88-5.51-5.68-8.08-9.39-7.72,7.88-13.19,10.24-23.21,10.24-11.84,0-21.07-7.31-21.07-21.94,0-11.43,6.2-19.21,15.01-23.01,7.65-3.37,18.32-3.96,26.48-4.89v-1.82c0-3.35,.26-7.31-1.7-10.2-1.72-2.59-5.01-3.66-7.9-3.66-5.37,0-10.16,2.75-11.33,8.46-.24,1.27-1.17,2.52-2.44,2.57l-13.67-1.47c-1.15-.26-2.42-1.19-2.1-2.95,3.15-16.56,18.1-21.55,31.49-21.55,6.85,0,15.81,1.82,21.21,7.01,6.85,6.4,6.2,14.93,6.2,24.22v21.94c0,6.6,2.73,9.49,5.31,13.05,.91,1.27,1.11,2.79-.04,3.74-2.87,2.4-7.98,6.85-10.79,9.35l-.04-.04"/></g><path id="path30-2" class="cls-1" d="M69.99,232.4v-3.05c-10.18,0-20.93,2.18-20.93,14.18,0,6.08,3.15,10.2,8.56,10.2,3.96,0,7.51-2.44,9.74-6.4,2.77-4.87,2.63-9.45,2.63-14.93m14.2,34.32c-.93,.83-2.28,.89-3.33,.34-4.67-3.88-5.51-5.68-8.08-9.39-7.72,7.88-13.19,10.24-23.21,10.24-11.84,0-21.07-7.31-21.07-21.94,0-11.43,6.2-19.21,15.01-23.01,7.65-3.37,18.32-3.96,26.48-4.89v-1.82c0-3.35,.26-7.31-1.7-10.2-1.72-2.59-5.01-3.66-7.9-3.66-5.37,0-10.16,2.75-11.33,8.46-.24,1.27-1.17,2.52-2.44,2.57l-13.67-1.47c-1.15-.26-2.42-1.19-2.1-2.95,3.15-16.56,18.1-21.55,31.49-21.55,6.85,0,15.81,1.82,21.21,7.01,6.85,6.4,6.2,14.93,6.2,24.22v21.94c0,6.6,2.73,9.49,5.31,13.05,.91,1.27,1.11,2.79-.04,3.74-2.87,2.4-7.98,6.85-10.79,9.35l-.04-.04"/></svg>