<svg id="Layer_1" data-name="Layer 1" xmlns="http://www.w3.org/2000/svg" viewBox="0 0 1285.2 253.44"><defs><style>.cls-1{fill:#e87826;}.cls-2{fill:#737374;}.cls-3{fill:#3b4488;}.cls-4{fill:#fff;}.cls-5{fill:#4bb649;}.cls-6{fill:none;}</style></defs><title>NVSP-colour</title><polygon points="150.41 56.79 40.3 166.99 8.8 135.32 118.91 25.12 150.41 56.79"/><polygon class="cls-1" points="135.17 57.11 40 152.37 23.73 136.02 119.1 40.95 135.17 57.11"/><path class="cls-2" d="M175.39,20.11a21.76,21.76,0,1,1-23.46-20A21.76,21.76,0,0,1,175.39,20.11Z"/><path class="cls-2" d="M213.65,57.2a21.76,21.76,0,1,1-23.46-20A21.76,21.76,0,0,1,213.65,57.2Z"/><path class="cls-2" d="M251.63,94.64a21.76,21.76,0,1,1-23.46-20A21.76,21.76,0,0,1,251.63,94.64Z"/><path class="cls-3" d="M302.8,178.49h-7l-8.23-21.08v21.08h-7V139h7l8.23,22V139h7Z"/><path class="cls-3" d="M323.59,170.81l-1.6,7.68h-7.31L324.79,139h6.85l10,39.53h-7.31l-1.6-7.68Zm4.63-22.34-3.31,16h6.63Z"/><path class="cls-3" d="M362.77,145.31v33.17h-7V145.31h-6.85V139h20.62v6.36Z"/><path class="cls-3" d="M390.81,139v39.53h-7V139Z"/><path class="cls-3" d="M404.74,167.6V149.78q0-5.61,3.14-8.51a11.74,11.74,0,0,1,8.28-2.89,11,11,0,0,1,8,2.89q3,2.89,3,8.51V167.6q0,5.5-3.17,8.42a11.62,11.62,0,0,1-8.2,2.92,11,11,0,0,1-8-2.89Q404.74,173.16,404.74,167.6Zm15.37-.8V150.93a8.48,8.48,0,0,0-1-4.61,3.44,3.44,0,0,0-3.08-1.58,3.55,3.55,0,0,0-3.23,1.55,8.65,8.65,0,0,0-1,4.64V166.8q0,5.79,4.23,5.79a3.49,3.49,0,0,0,3.06-1.52A7.4,7.4,0,0,0,420.11,166.8Z"/><path class="cls-3" d="M463.12,178.49h-7l-8.23-21.08v21.08h-7V139h7l8.23,22V139h7Z"/><path class="cls-3" d="M483.91,170.81l-1.6,7.68H475L485.1,139H492l10,39.49h-7.3l-1.6-7.68Zm4.63-22.34-3.31,16h6.63Z"/><path class="cls-3" d="M519.77,139v33.23h10.57v6.3H512.75V139Z"/><path class="cls-3" d="M813.93,167.2h6.63a7.56,7.56,0,0,0,1.17,4.3,3.68,3.68,0,0,0,3.11,1.37,3.5,3.5,0,0,0,3-1.26,6.76,6.76,0,0,0,.94-4,5.74,5.74,0,0,0-1.06-3.64,9.48,9.48,0,0,0-3.57-2.49l-2.68-1.2A12.61,12.61,0,0,1,816,156a12,12,0,0,1-1.68-6.76,11,11,0,0,1,2.88-8,10.35,10.35,0,0,1,7.8-3,9.59,9.59,0,0,1,7.51,3q2.66,3,2.83,8.51h-6.45a7.74,7.74,0,0,0-.94-4,3.25,3.25,0,0,0-3-1.35q-3.83,0-3.83,4.53a5.28,5.28,0,0,0,.94,3.29,7.89,7.89,0,0,0,3.17,2.21l2.57,1.15a13.65,13.65,0,0,1,6,4.58,12.91,12.91,0,0,1,1.86,7.33q0,5.5-2.86,8.48t-8.11,3q-5.2,0-7.94-3T813.93,167.2Z"/><path class="cls-3" d="M856.82,155.23H866v6.3h-9.14v10.66h10.62v6.3H849.85V139h17.59v6.36H856.82Z"/><path class="cls-3" d="M888.58,162.62v15.87h-7V139h10.74q5.83,0,8.25,2.81t2.43,9a17.39,17.39,0,0,1-1.08,6.59,7.65,7.65,0,0,1-3.54,4l5.88,17.19H897l-5-15.87Zm3.66-6.3a3.06,3.06,0,0,0,2.91-1.4,8.57,8.57,0,0,0,.8-4.15,8.66,8.66,0,0,0-.77-4.13,3.07,3.07,0,0,0-2.94-1.37h-3.66v11.06Z"/><path class="cls-3" d="M923.76,139l4.74,29.56L933.3,139H941l-8.85,39.53H924.9L916,139Z"/><path class="cls-3" d="M961.22,139v39.53h-7V139Z"/><path class="cls-3" d="M975.16,167.6V149.78q0-5.61,3.14-8.51a11.74,11.74,0,0,1,8.28-2.89,11.08,11.08,0,0,1,7.94,2.86q3,2.86,3,8.71v1.2h-7V150a6,6,0,0,0-1.11-4,3.76,3.76,0,0,0-3-1.29,3.55,3.55,0,0,0-3.23,1.55,8.65,8.65,0,0,0-1,4.64v15.9q0,5.79,4.23,5.79a3.73,3.73,0,0,0,3-1.32,5.9,5.9,0,0,0,1.11-3.9v-1h7v1.09q0,5.73-3.17,8.62a11.61,11.61,0,0,1-8.14,2.89,11,11,0,0,1-8-2.89Q975.16,173.16,975.16,167.6Z"/><path class="cls-3" d="M1017.08,155.23h9.14v6.3h-9.14v10.66h10.62v6.3h-17.59V139h17.59v6.36h-10.62Z"/><path class="cls-3" d="M1041.64,167.2h6.63a7.56,7.56,0,0,0,1.17,4.3,3.68,3.68,0,0,0,3.11,1.37,3.5,3.5,0,0,0,3-1.26,6.76,6.76,0,0,0,.94-4,5.74,5.74,0,0,0-1.06-3.64,9.48,9.48,0,0,0-3.57-2.49l-2.68-1.2a12.61,12.61,0,0,1-5.51-4.24,12,12,0,0,1-1.68-6.76,11,11,0,0,1,2.88-8,10.35,10.35,0,0,1,7.8-3,9.59,9.59,0,0,1,7.51,3q2.66,3,2.83,8.51h-6.45a7.74,7.74,0,0,0-.94-4,3.25,3.25,0,0,0-2.94-1.35q-3.83,0-3.83,4.53a5.28,5.28,0,0,0,.94,3.29,7.89,7.89,0,0,0,3.17,2.21l2.57,1.15a13.65,13.65,0,0,1,6,4.58,12.91,12.91,0,0,1,1.86,7.33q0,5.5-2.86,8.48t-8.11,3q-5.2,0-7.94-3T1041.64,167.2Z"/><path class="cls-3" d="M1119.24,151.39q0,6.3-2.54,9.4t-8.25,3.09h-3.66v14.61h-7V139h10.62q5.83,0,8.31,3.09T1119.24,151.39Zm-7,0a9.38,9.38,0,0,0-.89-4.64,3.32,3.32,0,0,0-3.11-1.49h-3.43v12.26h3.43a3.32,3.32,0,0,0,3.11-1.49,9.38,9.38,0,0,0,.87-4.64Z"/><path class="cls-3" d="M1131.52,167.6V149.78q0-5.61,3.14-8.51a11.74,11.74,0,0,1,8.28-2.89,11,11,0,0,1,8,2.89q3,2.89,3,8.51V167.6q0,5.5-3.17,8.42a11.62,11.62,0,0,1-8.2,2.92,11,11,0,0,1-8.05-2.89Q1131.52,173.16,1131.52,167.6Zm15.37-.8V150.93a8.48,8.48,0,0,0-1-4.61,3.44,3.44,0,0,0-3.08-1.58,3.55,3.55,0,0,0-3.23,1.55,8.65,8.65,0,0,0-1,4.64V166.8q0,5.79,4.23,5.79a3.49,3.49,0,0,0,3.06-1.52A7.4,7.4,0,0,0,1146.89,166.8Z"/><path class="cls-3" d="M1174.64,162.62v15.87h-7V139h10.74q5.83,0,8.25,2.81t2.43,9a17.39,17.39,0,0,1-1.08,6.59,7.65,7.65,0,0,1-3.54,4l5.88,17.19H1183l-5-15.87Zm3.66-6.3a3.06,3.06,0,0,0,2.91-1.4,8.57,8.57,0,0,0,.8-4.15,8.66,8.66,0,0,0-.77-4.13,3.07,3.07,0,0,0-2.94-1.37h-3.66v11.06Z"/><path class="cls-3" d="M1214.68,145.31v33.17h-7V145.31h-6.85V139h20.62v6.36Z"/><path class="cls-3" d="M1237.64,170.81l-1.6,7.68h-7.31L1238.84,139h6.85l10.05,39.53h-7.31l-1.6-7.68Zm4.63-22.34-3.31,16h6.63Z"/><path class="cls-3" d="M1274.65,139v33.23h10.57v6.3h-17.59V139Z"/><path class="cls-3" d="M574.57,139l4.74,29.56,4.8-29.56h7.71L583,178.49h-7.25L566.86,139Z"/><path class="cls-3" d="M604.33,167.6V149.78q0-5.61,3.14-8.51a11.74,11.74,0,0,1,8.28-2.89,11,11,0,0,1,8,2.89q3,2.89,3,8.51V167.6q0,5.5-3.17,8.42a11.62,11.62,0,0,1-8.2,2.92,11,11,0,0,1-8-2.89Q604.33,173.16,604.33,167.6Zm15.37-.8V150.93a8.48,8.48,0,0,0-1-4.61,3.44,3.44,0,0,0-3.08-1.58,3.55,3.55,0,0,0-3.23,1.55,8.65,8.65,0,0,0-1,4.64V166.8q0,5.79,4.23,5.79a3.49,3.49,0,0,0,3.06-1.52A7.4,7.4,0,0,0,619.7,166.8Z"/><path class="cls-3" d="M653.22,145.31v33.17h-7V145.31H639.4V139H660v6.36Z"/><path class="cls-3" d="M681,155.23h9.14v6.3H681v10.66h10.62v6.3H674.07V139h17.59v6.36H681Z"/><path class="cls-3" d="M713.93,162.62v15.87h-7V139h10.74q5.83,0,8.25,2.81t2.43,9a17.39,17.39,0,0,1-1.08,6.59,7.65,7.65,0,0,1-3.54,4l5.88,17.19H722.3l-5-15.87Zm3.66-6.3a3.06,3.06,0,0,0,2.91-1.4,8.57,8.57,0,0,0,.8-4.15,8.66,8.66,0,0,0-.77-4.13,3.07,3.07,0,0,0-2.94-1.37h-3.66v11.06Z"/><path class="cls-3" d="M741,167.2h6.63a7.56,7.56,0,0,0,1.17,4.3,3.68,3.68,0,0,0,3.11,1.37,3.5,3.5,0,0,0,3-1.26,6.76,6.76,0,0,0,.94-4,5.74,5.74,0,0,0-1-3.61,9.48,9.48,0,0,0-3.57-2.49l-2.68-1.2A12.61,12.61,0,0,1,743,156a12,12,0,0,1-1.68-6.76,11,11,0,0,1,2.88-8,10.35,10.35,0,0,1,7.8-3,9.59,9.59,0,0,1,7.51,3q2.66,3,2.83,8.51h-6.45a7.74,7.74,0,0,0-.94-4,3.25,3.25,0,0,0-3-1.35q-3.83,0-3.83,4.53a5.28,5.28,0,0,0,.94,3.29,7.89,7.89,0,0,0,3.17,2.21l2.57,1.15a13.65,13.65,0,0,1,6,4.58,12.91,12.91,0,0,1,1.86,7.33q0,5.5-2.86,8.48t-8.11,3q-5.2,0-7.94-3T741,167.2Z"/><rect class="cls-3" x="774.53" y="132.55" width="6.61" height="6.63"/><path d="M125.85,252.81l-6.28-6.15,3.92-4,.86.84-3,3.07,1.83,1.8,2.55-2.62.85.83L124,249.17l1.89,1.85,3-3.07.86.84Z"/><path d="M132.11,246.39a1.92,1.92,0,0,1-.64.45,1.5,1.5,0,0,1-.64.12,1.47,1.47,0,0,1-.61-.16,2.18,2.18,0,0,1-.54-.39l-5-4.94.88-.9,5,4.89a.85.85,0,0,0,.49.27.64.64,0,0,0,.5-.25l.39-.4.77.75Z"/><path d="M132.08,242.46a1.89,1.89,0,0,0,1.2.61,1.48,1.48,0,0,0,1.16-.52,2,2,0,0,0,.49-.72A2.42,2.42,0,0,0,135,241h1.1a4.51,4.51,0,0,1,0,.65,2.67,2.67,0,0,1-.44,1.15,4,4,0,0,1-.47.57,3.53,3.53,0,0,1-.89.67,2.22,2.22,0,0,1-1,.26,2.63,2.63,0,0,1-1.13-.26,4.41,4.41,0,0,1-1.23-.89,3.49,3.49,0,0,1-1.18-2.18,2.46,2.46,0,0,1,.76-2,2.71,2.71,0,0,1,.94-.65,2.35,2.35,0,0,1,1-.16,2.7,2.7,0,0,1,1,.29,4,4,0,0,1,1,.73l.4.39Zm1-2.92a1.57,1.57,0,0,0-.37-.18,1.26,1.26,0,0,0-.74-.07,1.34,1.34,0,0,0-.69.4,1.37,1.37,0,0,0-.38.7,1.25,1.25,0,0,0,.08.74,1.36,1.36,0,0,0,.19.36c.07.1.18.21.3.35l2-2a3.79,3.79,0,0,0-.42-.31Z"/><path d="M140.47,237.61a2.83,2.83,0,0,1-.64,1,3.12,3.12,0,0,1-.84.62,2.34,2.34,0,0,1-1,.25,2.81,2.81,0,0,1-1.15-.24,4.72,4.72,0,0,1-2.12-2.08,2.76,2.76,0,0,1-.27-1.14,2.4,2.4,0,0,1,.23-1,3.14,3.14,0,0,1,.6-.86,2.89,2.89,0,0,1,.94-.67,2.78,2.78,0,0,1,1.13-.19v1.21a2.12,2.12,0,0,0-.72.08,1.51,1.51,0,0,0-1,1.58,1.47,1.47,0,0,0,.23.64,4.17,4.17,0,0,0,.59.69,4.26,4.26,0,0,0,.71.58,1.47,1.47,0,0,0,.64.22,1.52,1.52,0,0,0,1.56-1,2.11,2.11,0,0,0,.07-.72h1.19A2.88,2.88,0,0,1,140.47,237.61Z"/><path d="M143.53,234.66a1.81,1.81,0,0,1-.64.44,1.55,1.55,0,0,1-.65.11,1.61,1.61,0,0,1-.62-.16,2,2,0,0,1-.54-.38l-2.46-2.41-.5.51-.69-.67.5-.51-1.36-1.33.88-.9,1.36,1.33.84-.87.69.67-.84.87,2.42,2.37a.79.79,0,0,0,.5.26.66.66,0,0,0,.5-.24l.36-.37.77.75Z"/><path d="M139.8,227.75l-1-.93.93-1,1,.93Zm5.38,5.22-4.47-4.38.88-.9,4.47,4.38Z"/><path d="M149.56,226a2.37,2.37,0,0,1,.35,1.17,2.48,2.48,0,0,1-.16.92,2.67,2.67,0,0,1-.62.94,2.61,2.61,0,0,1-.92.64,2.47,2.47,0,0,1-.91.18,2.35,2.35,0,0,1-1.18-.32,6.66,6.66,0,0,1-2-2,2.37,2.37,0,0,1-.35-1.17,2.49,2.49,0,0,1,.15-.92,2.61,2.61,0,0,1,.62-.93,2.66,2.66,0,0,1,.92-.65,2.47,2.47,0,0,1,.92-.18,2.34,2.34,0,0,1,1.18.32,5.83,5.83,0,0,1,1.1.87A5.93,5.93,0,0,1,149.56,226Zm-2.53-.82a1.31,1.31,0,0,0-.78-.26,1.36,1.36,0,0,0-1.28,1.32,1.32,1.32,0,0,0,.28.77,6,6,0,0,0,.65.74,6.13,6.13,0,0,0,.75.63,1.31,1.31,0,0,0,.78.26,1.24,1.24,0,0,0,.9-.4,1.26,1.26,0,0,0,.38-.92,1.32,1.32,0,0,0-.28-.78,6.44,6.44,0,0,0-1.39-1.37Z"/><path d="M154.75,223.15,152,220.48a1.37,1.37,0,0,0-1-.48,1.28,1.28,0,0,0-.86.41,1.25,1.25,0,0,0-.07,1.77l.16.14L153,225l-.88.9-4.47-4.38.86-.89.45.44a2,2,0,0,1,.15-.92,2.46,2.46,0,0,1,.51-.77,2.43,2.43,0,0,1,.71-.52,2,2,0,0,1,.77-.19,1.93,1.93,0,0,1,.91.2,3.27,3.27,0,0,1,.79.58l2.86,2.8Z"/><path d="M161.32,214.3a3,3,0,0,1,.13,1.09,2.84,2.84,0,0,1-.28,1,3.55,3.55,0,0,1-.66.92,3.28,3.28,0,0,1-1.06.74,3.16,3.16,0,0,1-1.22.25,2.45,2.45,0,0,1-.83-.12,3.08,3.08,0,0,1-.73-.36,5.68,5.68,0,0,1-.73-.59l-.82-.79-.81-.81a5.75,5.75,0,0,1-.6-.72,3.14,3.14,0,0,1-.38-.73,2.5,2.5,0,0,1-.14-.83,3.19,3.19,0,0,1,.23-1.23,3.29,3.29,0,0,1,.72-1.08,3.13,3.13,0,0,1,1.93-1,3.22,3.22,0,0,1,2.19.64l-.95,1a2.15,2.15,0,0,0-1.19-.33,1.63,1.63,0,0,0-1.12.55,1.85,1.85,0,0,0-.41.62,1.63,1.63,0,0,0,0,1.13,1.85,1.85,0,0,0,.25.47,6.18,6.18,0,0,0,.48.58q.3.33.78.8t.81.76a6.11,6.11,0,0,0,.59.47,1.82,1.82,0,0,0,.47.24,1.63,1.63,0,0,0,.45.07,1.67,1.67,0,0,0,.67-.13,1.82,1.82,0,0,0,.61-.42,1.66,1.66,0,0,0,.53-1.14,2.15,2.15,0,0,0-.35-1.19l.94-1A3.68,3.68,0,0,1,161.32,214.3Z"/><path d="M165.88,209.24a2.37,2.37,0,0,1,.35,1.17,2.48,2.48,0,0,1-.16.92,2.67,2.67,0,0,1-.62.94,2.61,2.61,0,0,1-.92.64,2.47,2.47,0,0,1-.91.18,2.35,2.35,0,0,1-1.18-.32,6.66,6.66,0,0,1-2-2,2.37,2.37,0,0,1-.35-1.17,2.49,2.49,0,0,1,.15-.92,2.61,2.61,0,0,1,.62-.93,2.66,2.66,0,0,1,.92-.65,2.47,2.47,0,0,1,.92-.18,2.34,2.34,0,0,1,1.18.32,5.83,5.83,0,0,1,1.1.87A5.93,5.93,0,0,1,165.88,209.24Zm-2.53-.82a1.31,1.31,0,0,0-.78-.26,1.36,1.36,0,0,0-1.28,1.32,1.32,1.32,0,0,0,.28.77,6,6,0,0,0,.65.74,6.13,6.13,0,0,0,.75.63,1.31,1.31,0,0,0,.78.26,1.24,1.24,0,0,0,.9-.4,1.26,1.26,0,0,0,.38-.92,1.32,1.32,0,0,0-.28-.78,6.44,6.44,0,0,0-1.39-1.37Z"/><path d="M173.74,203.66,171,201a1.37,1.37,0,0,0-1-.48,1.27,1.27,0,0,0-.86.41,1.52,1.52,0,0,0-.29.41,1.15,1.15,0,0,0-.11.47,1.18,1.18,0,0,0,.1.5,1.53,1.53,0,0,0,.35.49l2.77,2.71-.88.9-2.73-2.67a1.37,1.37,0,0,0-1-.48,1.28,1.28,0,0,0-.86.41,1.25,1.25,0,0,0-.07,1.77l.16.14,2.72,2.67-.88.9L164,204.77l.86-.89.45.44a2.12,2.12,0,0,1,.15-.91,2.4,2.4,0,0,1,.51-.78,2,2,0,0,1,1.89-.63,2.43,2.43,0,0,1,.72-2,2.58,2.58,0,0,1,.73-.53,1.93,1.93,0,0,1,.78-.2,2.11,2.11,0,0,1,.93.19,2.91,2.91,0,0,1,.8.57l2.86,2.8Z"/><path d="M181.28,195.91l-2.73-2.67a1.37,1.37,0,0,0-1-.48,1.28,1.28,0,0,0-.86.41,1.52,1.52,0,0,0-.29.41,1.14,1.14,0,0,0-.11.47,1.18,1.18,0,0,0,.1.5,1.52,1.52,0,0,0,.35.49l2.77,2.71-.88.9L175.89,196a1.37,1.37,0,0,0-1-.48,1.27,1.27,0,0,0-.86.41,1.25,1.25,0,0,0-.06,1.77l.15.13,2.72,2.67-.88.9-4.47-4.4.86-.88.45.44a2.12,2.12,0,0,1,.15-.91,2.38,2.38,0,0,1,.51-.77,2,2,0,0,1,1.89-.63,2.43,2.43,0,0,1,.72-2,2.57,2.57,0,0,1,.73-.53,1.94,1.94,0,0,1,.78-.2,2.11,2.11,0,0,1,.93.19,2.91,2.91,0,0,1,.8.57l2.86,2.8Z"/><path d="M178.14,188.4l-1-.93.93-1,1,.93Zm5.38,5.22L179,189.24l.88-.9,4.47,4.38Z"/><path d="M188.14,187.37a1.84,1.84,0,0,1,.07.83,2.39,2.39,0,0,1-.31.86,4.16,4.16,0,0,1-.64.83,5.36,5.36,0,0,1-1.12.89,2.76,2.76,0,0,1-1.36.36V190a1.87,1.87,0,0,0,1-.25,3.57,3.57,0,0,0,.75-.59,2.06,2.06,0,0,0,.53-.85.76.76,0,0,0-.69-1,1,1,0,0,0-.62.3l-.76.66a2.35,2.35,0,0,1-1.3.64,1.54,1.54,0,0,1-1.22-.52,1.72,1.72,0,0,1-.53-1.49,2.4,2.4,0,0,1,.26-.79,3.16,3.16,0,0,1,.55-.75,5,5,0,0,1,1-.82,2.5,2.5,0,0,1,1.1-.35v1.13a1.78,1.78,0,0,0-.74.25,3.35,3.35,0,0,0-.67.53,1.37,1.37,0,0,0-.44.77.7.7,0,0,0,.22.61.66.66,0,0,0,.46.2,1.08,1.08,0,0,0,.65-.32l.75-.65a2.33,2.33,0,0,1,1.32-.64,1.59,1.59,0,0,1,1.24.54A1.82,1.82,0,0,1,188.14,187.37Z"/><path d="M192.36,183a1.84,1.84,0,0,1,.07.83,2.39,2.39,0,0,1-.31.86,4.17,4.17,0,0,1-.64.83,5.38,5.38,0,0,1-1.12.89,2.76,2.76,0,0,1-1.36.36V185.6a1.87,1.87,0,0,0,1-.25,3.57,3.57,0,0,0,.75-.59,2.06,2.06,0,0,0,.53-.85.76.76,0,0,0-.69-1,1,1,0,0,0-.62.3l-.76.66a2.34,2.34,0,0,1-1.3.64,1.54,1.54,0,0,1-1.22-.52,1.76,1.76,0,0,1-.45-.7,1.74,1.74,0,0,1-.07-.78,2.4,2.4,0,0,1,.26-.79A3.14,3.14,0,0,1,187,181a4.93,4.93,0,0,1,1-.82,2.5,2.5,0,0,1,1.1-.35v1.13a1.76,1.76,0,0,0-.74.25,3.32,3.32,0,0,0-.67.53,1.37,1.37,0,0,0-.44.77.7.7,0,0,0,.22.61.66.66,0,0,0,.46.2,1.08,1.08,0,0,0,.65-.32l.75-.65a2.33,2.33,0,0,1,1.32-.64,1.59,1.59,0,0,1,1.24.54A1.82,1.82,0,0,1,192.36,183Z"/><path d="M188.95,177.31l-1-.93.93-1,1,.93Zm5.38,5.22-4.47-4.38.88-.9,4.47,4.38Z"/><path d="M198.69,175.56a2.37,2.37,0,0,1,.35,1.17,2.48,2.48,0,0,1-.16.92,2.67,2.67,0,0,1-.62.94,2.61,2.61,0,0,1-.92.64,2.47,2.47,0,0,1-.91.18,2.35,2.35,0,0,1-1.18-.32,6.66,6.66,0,0,1-2-2,2.37,2.37,0,0,1-.35-1.17,2.49,2.49,0,0,1,.15-.92,2.61,2.61,0,0,1,.62-.93,2.66,2.66,0,0,1,.92-.65,2.47,2.47,0,0,1,.92-.18,2.34,2.34,0,0,1,1.18.32,5.83,5.83,0,0,1,1.1.87A5.93,5.93,0,0,1,198.69,175.56Zm-2.53-.82a1.31,1.31,0,0,0-.78-.26,1.36,1.36,0,0,0-1.28,1.32,1.32,1.32,0,0,0,.28.77,6,6,0,0,0,.65.74,6.13,6.13,0,0,0,.75.63,1.31,1.31,0,0,0,.78.26,1.24,1.24,0,0,0,.9-.4,1.26,1.26,0,0,0,.38-.92,1.32,1.32,0,0,0-.28-.78,6.44,6.44,0,0,0-1.39-1.37Z"/><path d="M203.89,172.71,201.17,170a1.37,1.37,0,0,0-1-.48,1.28,1.28,0,0,0-.86.41,1.25,1.25,0,0,0-.07,1.77l.16.14,2.72,2.67-.88.9L196.77,171l.86-.89.45.44a2,2,0,0,1,.15-.92,2.46,2.46,0,0,1,.51-.77,2.43,2.43,0,0,1,.71-.52,2,2,0,0,1,.77-.19,1.93,1.93,0,0,1,.91.2,3.27,3.27,0,0,1,.79.58l2.86,2.8Z"/><path d="M209.94,164a2.37,2.37,0,0,1,.35,1.17,2.48,2.48,0,0,1-.16.92,2.67,2.67,0,0,1-.62.94,2.61,2.61,0,0,1-.92.64,2.47,2.47,0,0,1-.91.18,2.35,2.35,0,0,1-1.18-.32,6.66,6.66,0,0,1-2-2,2.37,2.37,0,0,1-.35-1.17,2.49,2.49,0,0,1,.15-.92,2.61,2.61,0,0,1,.62-.93,2.66,2.66,0,0,1,.92-.65,2.47,2.47,0,0,1,.92-.18,2.34,2.34,0,0,1,1.18.32,5.83,5.83,0,0,1,1.1.87A5.93,5.93,0,0,1,209.94,164Zm-2.53-.82a1.31,1.31,0,0,0-.78-.26,1.36,1.36,0,0,0-1.28,1.32,1.32,1.32,0,0,0,.28.77,6,6,0,0,0,.65.74,6.13,6.13,0,0,0,.75.63,1.31,1.31,0,0,0,.78.26,1.24,1.24,0,0,0,.9-.4,1.26,1.26,0,0,0,.38-.92,1.32,1.32,0,0,0-.28-.78,6.44,6.44,0,0,0-1.39-1.37Z"/><path d="M209.78,159.23l3.7,3.63-.88.9-3.7-3.63-.5.51-.69-.67.5-.51-.69-.67a2.05,2.05,0,0,1-.39-.53,1.62,1.62,0,0,1-.18-.62A1.56,1.56,0,0,1,207,157a1.82,1.82,0,0,1,.43-.65l.55-.57.77.75-.39.4a.66.66,0,0,0-.23.51.79.79,0,0,0,.27.5l.64.63.87-.89.69.67Z"/><path d="M217.12,159.13,210.84,153l.93-1,6.28,6.15Z"/><path d="M222.23,153.88l-2.73-2.67a1.37,1.37,0,0,0-1-.48,1.28,1.28,0,0,0-.86.41,1.25,1.25,0,0,0-.07,1.77l.16.14,2.72,2.67-.88.9-4.47-4.38.86-.89.45.44a2,2,0,0,1,.15-.92,2.46,2.46,0,0,1,.51-.77,2.43,2.43,0,0,1,.71-.52,2,2,0,0,1,.77-.19,1.93,1.93,0,0,1,.91.2,3.27,3.27,0,0,1,.79.58l2.86,2.8Z"/><path d="M227,149l-.48-.47a1.92,1.92,0,0,1-.1.95,2.45,2.45,0,0,1-.52.76,2.48,2.48,0,0,1-.71.52,1.8,1.8,0,0,1-.75.19,1.84,1.84,0,0,1-.65-.11,3.09,3.09,0,0,1-.62-.31,4.67,4.67,0,0,1-.58-.44l-.53-.5-.51-.52a4.47,4.47,0,0,1-.45-.57,3.16,3.16,0,0,1-.32-.61,1.87,1.87,0,0,1-.13-.65,1.81,1.81,0,0,1,.17-.75,2.45,2.45,0,0,1,.5-.72,2.56,2.56,0,0,1,.73-.54,1.82,1.82,0,0,1,.91-.14l-2.26-2.21.88-.9,6.28,6.15Zm-2.86-2.7a2.07,2.07,0,0,0-.6-.33,1.08,1.08,0,0,0-.6,0,1.48,1.48,0,0,0-1,1,1.14,1.14,0,0,0,0,.6,2,2,0,0,0,.34.6,7,7,0,0,0,.54.59,6.88,6.88,0,0,0,.6.53,2,2,0,0,0,.61.33,1.12,1.12,0,0,0,.6,0,1.44,1.44,0,0,0,1-1,1.07,1.07,0,0,0-.05-.6,2.15,2.15,0,0,0-.35-.6,7.41,7.41,0,0,0-1.14-1.12Z"/><path d="M223.85,141.48l-1-.93.93-1,1,.93Zm5.38,5.22-4.47-4.38.88-.9,4.47,4.38Z"/><path d="M233.86,141.95l-.41-.4a2.18,2.18,0,0,1-.15.86,2.6,2.6,0,0,1-.56.79,3,3,0,0,1-.8.61,1.78,1.78,0,0,1-.78.19,1.86,1.86,0,0,1-1.31-.59,1.71,1.71,0,0,1-.55-1.29,2.3,2.3,0,0,1,.77-1.52l1.16-1.19-.32-.31a1.14,1.14,0,0,0-.85-.39,1.54,1.54,0,0,0-.94.55,2,2,0,0,0-.47.68,1.54,1.54,0,0,0-.05.73h-1.13a2.38,2.38,0,0,1,.16-1.18,3.74,3.74,0,0,1,.76-1.06q1.8-1.85,3.34-.34l3,2.93Zm-2-1.92-1,1.05a1.29,1.29,0,0,0-.42.77.82.82,0,0,0,.28.67.8.8,0,0,0,.67.26,1.36,1.36,0,0,0,.77-.46,3.36,3.36,0,0,0,.41-.5,1,1,0,0,0,.15-.59,1.28,1.28,0,0,0-.47-.84Z"/><path d="M7.06,144.71,7,144.62l-.74.76,1.41,1.46-2.5,2.56L3,147.28l1.91-1.92a2.62,2.62,0,0,0,.46-.69,2,2,0,0,0-.61-2.19,2.17,2.17,0,0,0-1.5-.72c-1.22,0-2,1.49-2,1.49l1,1a2.86,2.86,0,0,1,0-.49,1.45,1.45,0,0,1,.19-.4,1.35,1.35,0,0,1,.17-.18,1.8,1.8,0,0,1,.34-.24,1,1,0,0,1,.34-.07,2.1,2.1,0,0,1,.34.11,1.13,1.13,0,0,1,.32.21.78.78,0,0,1,.25.57.75.75,0,0,1-.23.56l-1.91,2a11.26,11.26,0,0,0-.81-.79,1.06,1.06,0,0,0-.2-.1l-.24-.05H.57c-.33.06-.47.55-.49.79S0,147.4,0,147.4c-.07,2.14.87,2.07.87,2.07l1.37-1.4,2.16,2.12L.73,153.94l1,1,6.95-7.13.92.9h0L11,150.12l-6.83,7-.09.09,1,1L12,151.1l4.72,4.68L15,157.56a1.69,1.69,0,0,1-1,.41,1.35,1.35,0,0,1-.87-.46,1.18,1.18,0,0,1-.45-1.08l.43-1.77-1.24-.19-.26.94-.48,2L11,158.54a28,28,0,0,0-.43,3.35,4.34,4.34,0,0,0,.05,1.68l0,.1h1.22v-.77l.06-1.61.09-.92.37-2.25,0,.05.28.28a2.65,2.65,0,0,0,.73.5,2.11,2.11,0,0,0,2.5-.39l1.81-1.86,6.35,6.05-1.28,1.3-3.18-3.12a1.85,1.85,0,0,0-.77-.45,1.64,1.64,0,0,0-.79-.07,2.64,2.64,0,0,0-1.51.83,5.26,5.26,0,0,0-.88,1.2,6.61,6.61,0,0,0-.56,1.51l-.14.61-.1.62-.06,1.3v.8a.7.7,0,0,0,0,.24l.09.21h1.38l-.21-.21a.56.56,0,0,1-.15-.3,5.91,5.91,0,0,1,.19-2.4,5.3,5.3,0,0,1,1.32-2.59l.42-.31a.89.89,0,0,1,.89,0,1.56,1.56,0,0,1,.51.33l2.69,2.64-4.88,5,1,1,6.91-7.11,1.51,1.3.77-.78Z"/><path d="M55.57,192.21l0-.53.07-.49a3.27,3.27,0,0,1,.3-1,2.92,2.92,0,0,1,.54-.8,1.41,1.41,0,0,1,.92-.45,1.11,1.11,0,0,1,.9.34l.29.29.2.32,0,.16.18.28.77-.75-.33-.64-.4-.48a2.76,2.76,0,0,0-1.56-.79,1.74,1.74,0,0,0-1.56.55,3.48,3.48,0,0,0-.63.92l-.41,1.22-.18.89s0,.09,0,.14l-9.52-9.26v-1.66l-.2-2a14.15,14.15,0,0,0-.33-1.77A7.13,7.13,0,0,0,43,173.3a4,4,0,0,0-1.14-.79,3.56,3.56,0,0,0-1.92-.21,2.39,2.39,0,0,0-.87.31,4.14,4.14,0,0,0-.75.63l-.25.26-.58,1v0l-1.33-1.3-.78.79,1.36,1.27-6.83,7-.09.09,1,1,6.92-7.1.91.89h0l5.54,5.43-1.83,1.87-4-3.91-.18-.18-.22-.11h0a.91.91,0,0,0-.8.27l0,0a2.24,2.24,0,0,0-.22.61,7.33,7.33,0,0,0-.16,1.15v1.12a1.13,1.13,0,0,0,.18.61l.21.21h.38a.38.38,0,0,0,.16-.11l1.35-1.4,2.61,2.56L37.3,189.6l-.09.09,1,1,6.92-7.1,5.64,5.59-3.69,3.79a2,2,0,0,1-1.25-.08h0a1.19,1.19,0,0,1-.59-.21l-.32-.21-.16-.16a3.25,3.25,0,0,1-.47-.64,2,2,0,0,1,.6-2.11,2.66,2.66,0,0,1,.57-.44,1.65,1.65,0,0,1,1.29-.14,1.71,1.71,0,0,1,.6.4l.35.42.28.5.08.18.16.51.8-1.32-.27-.26-.19-.32-.26-.36-.27-.26a2.71,2.71,0,0,0-2.15-.79,3.11,3.11,0,0,0-2.15,1,3,3,0,0,0-.42.52,2.75,2.75,0,0,0-.25.51,3.19,3.19,0,0,0-.12,1.24,3.35,3.35,0,0,0,1,2.2l.54.4.62.29.59.11.34,0-2.19,2.25,1,1,6.92-7.12L54,192.18l-6.83,7-.09.09,1,1,6.87-7.06,7.28,7.1-3,3a1.68,1.68,0,0,1-.92.21h-.61c-2.2.09-2.81-1.29-2.81-1.29a1.26,1.26,0,0,1,.37-1.42,2.27,2.27,0,0,1,1.9-.55l.52,0,.68.11,1.06,1.06.78-.79-4.67-4.58-.09-.09-.77.79L56.89,199h-.3a3.24,3.24,0,0,0-2.35.85,2.5,2.5,0,0,0-.57.88,2.15,2.15,0,0,0-.15.94,2.65,2.65,0,0,0,.86,1.73,3.28,3.28,0,0,0,1,.66,5.24,5.24,0,0,0,1.4.41l1,.09.17,0-2.75,2.83,1,1,6.92-7.1,6.36,6.18-1.83,1.87-4-3.91-.18-.18-.22-.11h0a.91.91,0,0,0-.8.27l0,0a2.23,2.23,0,0,0-.22.61,7.35,7.35,0,0,0-.16,1.15v1.12a1.12,1.12,0,0,0,.18.61,1.09,1.09,0,0,0,.21.18,1.31,1.31,0,0,0,.33,0h0A.38.38,0,0,0,63,209l1.35-1.4,2.61,2.56-4.23,4.35-.09.09,1,1,6.92-7.1,1.22,1.15.77-.79ZM38.42,175.39v-.11l.15-.35s.16-.31.23-.41a3.59,3.59,0,0,1,.29-.3,3.71,3.71,0,0,1,.75-.57,2,2,0,0,1,1.61,0,1.76,1.76,0,0,1,.66.44,4.51,4.51,0,0,1,.82,1.14,6,6,0,0,1,.55,1.53l.31,1.47.1.59a6.1,6.1,0,0,1,.09,1v.72l0,.41-4.28-4.24h0Z"/><path d="M102.14,237.89l.6-6.85-1.34.08v6.05L86.2,222.3l-.09-.09-.78.79,1.49,1.45L84,227.3l-.18-.08s-.48-.26-.63-.36a3.73,3.73,0,0,1-.67-.65,5.1,5.1,0,0,1-.3-.66l-.08-.28-.08-.19-.05-.22-.13-.39-.09-.23a2.27,2.27,0,0,0,2-.7,2.5,2.5,0,0,0,.76-1.76,2.58,2.58,0,0,0-.77-1.89,3.7,3.7,0,0,0-2.34-1l-.9-.08H80l.16,1.25h1.16l.54.07a2.17,2.17,0,0,1,1,.5,1.87,1.87,0,0,1,.39.58,1.07,1.07,0,0,1-.08,1,1.8,1.8,0,0,1-.36.48,1.52,1.52,0,0,1-.69.4,2.3,2.3,0,0,1-1.69-.27l-.32-.2-.5-.48-.38,1.06a7.39,7.39,0,0,1,.62.44l.26.23a2.46,2.46,0,0,1,.61,1,1.29,1.29,0,0,1-.07,1.06v0a1.06,1.06,0,0,1-.14.32,3.71,3.71,0,0,1-.31.35,1.89,1.89,0,0,1-.57.39,1.5,1.5,0,0,1-1.73-.18c-.63-.62-.82-1.67-.54-3.13l.17-.91.37-1.41-1.22-.25,0,.08a11.89,11.89,0,0,0-.55,2.54,6.72,6.72,0,0,0,.15,2.21,3.58,3.58,0,0,0,.35.89,3.26,3.26,0,0,0,.53.68l.43.42a2.54,2.54,0,0,0,3.55-.39l.34-.35.26-.46,0-.06a5.86,5.86,0,0,0,.31.56,4.31,4.31,0,0,0,.62.61L83,228l.14.07-3.28,3.37.94.93,6.92-7.1,2.19,2.14-6.83,7-.09.09,1,1,6.92-7.1,3.09,3-.08.77a3,3,0,0,1-.61,1.34,1.5,1.5,0,0,1-1.2.56,2,2,0,0,1-1.16-.57l-.27-.27-.24-.47-.12.12a3.82,3.82,0,0,0-1.14,3,4,4,0,0,0,1.3,2.75,4,4,0,0,0,2.29,1.12L90.56,242l1,1,6.92-7.1.73.69h0l1.46,1.44-6.83,7-.09.09,1,1,6.92-7.1,1,.93h0l2.42,2.37-2.18,2.24-.81-.72-.33-.33h-.25a.51.51,0,0,0-.24.16,1.55,1.55,0,0,0-.34.7,5.73,5.73,0,0,0-.07,2.31,1.68,1.68,0,0,0,.31.68l.31.18.06,0a.7.7,0,0,0,.43-.15l4.06-4.17,2.18,2.15-6.83,7-.09.09,1,1,6.92-7.1,1.65,1.62.77-.79Zm-4.65-3-3.5,3.6-.72.13a3.38,3.38,0,0,1-.84-.07,2.55,2.55,0,0,1-1.39-.72,2.31,2.31,0,0,1-.57-2.55v-.15l.12-.31,0-.08.54.3.54.22a2.48,2.48,0,0,0,2.48-.72l.39-.57.33-.83.1-.35.06-.25Z"/><path class="cls-3" d="M1070.58,63.85h-41.69l-1.29-1.56-1.16-1.58a12.56,12.56,0,0,1-1.82-3.49,11.4,11.4,0,0,1-.66-3.62,5.27,5.27,0,0,1,1.28-3.63,4.07,4.07,0,0,1,3.25-1.41h.25a16.16,16.16,0,0,1,3.37.67l1.65.58.13-5.1-1.57-.53a12.84,12.84,0,0,0-2.74-.59h-.19a11.36,11.36,0,0,0-2.59,0,10.89,10.89,0,0,0-5.21,2.06,7.26,7.26,0,0,0-3,6.15,13.46,13.46,0,0,0,.56,3.68,9.42,9.42,0,0,0,.39,1l.16.38a38,38,0,0,0,4,7H991.49L974.2,42.42l-4.09,4.47,16.27,17H940.17V69h6.44v14.4a15.15,15.15,0,0,0,.87,4.73v.11c2.46,5,6.29,7.49,11.41,7.49a11.74,11.74,0,0,0,6.76-2.14l1.13-.79.1-.09v16H973V68.93h12.21v39.72h6.07V68.93h33.58v7.42h-10.63a11.49,11.49,0,0,0-8.14,3.34,11.11,11.11,0,0,0-3.52,8.36,16.83,16.83,0,0,0,5.8,12.59A19.36,19.36,0,0,0,1022,106a17.29,17.29,0,0,0,10.33-3.4,17.05,17.05,0,0,0,4.43-4.88l.45-.75-4.94-2.77-2.65,3.34a11.2,11.2,0,0,1-8.29,3.36,11.69,11.69,0,0,1-9-4,12.51,12.51,0,0,1-3.74-8.58,5.69,5.69,0,0,1,.41-2.44,7.42,7.42,0,0,1,3.48-3.67,7.9,7.9,0,0,1,1.26-.49,6.63,6.63,0,0,1,1.45-.1h15.54V68.93h45.54v8.79l-.53.07-.83.17-2.16.7-2,.88-2.9,2-.63.48a3.19,3.19,0,0,0-.56-.47l-2.22-1.76a10.21,10.21,0,0,0-4-2,8.59,8.59,0,0,0-2.7-.67H1056a13.12,13.12,0,0,0-9.33,3.42A11.67,11.67,0,0,0,1043,89.3c0,4.13,1.77,8.08,5.27,11.77,4.84,5,8.68,7.47,11.76,7.47h.48l2.78-4.69-5-2.36-2.84-1.79c-4.52-2.9-6.71-6.19-6.71-10.06a8.7,8.7,0,0,1,2-5.23,8.47,8.47,0,0,1,2.15-1.58,6.86,6.86,0,0,1,1.29-.48,5.77,5.77,0,0,1,.78-.06,6.08,6.08,0,0,1,1.15.08,16.25,16.25,0,0,1,3.6,1l1,.4c1.91.81,2.71,1.54,3,2.08l-2,3.65a4.62,4.62,0,0,0-.6,2.27v.49L1066,95.1l1-2.82,1.18-2.29,1.21-1.94,1.33-1.57,1.08-1,1-.67,2.42-1.17,1.15-.27v25.29h6.07V68.93h8V63.85ZM966.93,68.93v16.7l-1.1,1.44-1,1.11-1.48,1.17a8.84,8.84,0,0,1-4.49,1.42l-2.26-.38c-2.73-1.55-4.06-3.67-4.06-6.46v-15Z"/><path class="cls-3" d="M903.36,63.87H857L839.71,42.44l-4.09,4.47,16.27,17H811.82V69h19.49V82.31c-.13.38-.5,1.17-1,1.31a15.42,15.42,0,0,1-1.63.21,4.33,4.33,0,0,1-4.18-2.42L821.61,76l-5,3.23,3.38,5.9L822.3,89l10.07,14.65c1.8,2.71,3.2,4.16,4.4,4.56l.45.15,4.46-3.71-2.34-2.35-3.92-4.52-2.19-2.86-4-6.1a12.29,12.29,0,0,0,4.15-.89c2.42-.74,3.38-3.29,3.72-4.51l2.81,3.3H851.1v22h6.07V69H889.7V89.42c-.92,1.36-4,3.81-5.85,4.12l-.68.14a7.89,7.89,0,0,1-1.62.17,12,12,0,0,1-3-.52C876,92,874.71,89.6,874.71,86a10.19,10.19,0,0,1,.37-2.69c.89-2.1,1.91-3.36,3.11-3.8a5.27,5.27,0,0,1,1.47-.42,8.09,8.09,0,0,1,2,0l.58.06a8.33,8.33,0,0,1,1.38.27l1.43.4.63.27,2.49,1.3-1.41-6.81h-.69a7.87,7.87,0,0,1-2-.27q-.33-.09-.66-.15l-.32-.05a13.19,13.19,0,0,0-2.23-.19h-.43a11.13,11.13,0,0,0-8.51,3.87,12.94,12.94,0,0,0-3.48,8.95,12.53,12.53,0,0,0,.27,2.7,11.2,11.2,0,0,0,.73,2.22,13.16,13.16,0,0,0,3.18,4,13.58,13.58,0,0,0,8.64,3.42,8.33,8.33,0,0,0,1.06,0l1.22-.12a7.91,7.91,0,0,0,1.89-.42l.45-.16A11.43,11.43,0,0,0,888.44,97l1.26-.9v12.53h6.07V69h11.36v39.7h6.07V69h8V63.87ZM837.21,69h13.84V81.59H837.21Z"/><path class="cls-3" d="M776.2,63.84H591.09v5.08h10.49v13H598.8A3.19,3.19,0,0,0,595.64,85a4.17,4.17,0,0,0,1,2.77,60.52,60.52,0,0,0,4.27,5c1.55,1.61,2.77,2.38,3.85,2.41h.08a2.47,2.47,0,0,0,.42,0,3.91,3.91,0,0,0,.61-.11l.23-.07h.08a2.1,2.1,0,0,0,.64-.36l.38-.31.29-.25V87.32h13.34v21.34h6.07V68.93h35v6.51H644.62a7.66,7.66,0,0,0-3.62.93,6.63,6.63,0,0,0-2.51,2.06,10.84,10.84,0,0,0-2.07,6.74,21.19,21.19,0,0,0,.82,5.93,26.75,26.75,0,0,0,2.6,5.89l1.27,2.13,1.4,2L646,105l2.3,2.23a2.85,2.85,0,0,0,.9.69l.51.19.5.17,4.65-4.79h-2a1.91,1.91,0,0,1-1.1-.37c-1.69-1.09-3.68-3.5-5.93-7.15a20.88,20.88,0,0,1-3.36-11,4.49,4.49,0,0,1,1-3.1,5,5,0,0,1,3.84-1.4h14.54V108.6h6.07V68.93H700.1v5.93H688.72a8.07,8.07,0,0,0-6.52,3.34,11.58,11.58,0,0,0-2.58,7.36,15.24,15.24,0,0,0,1.9,7.89,14,14,0,0,0,6.23,5.26,23,23,0,0,0,11,2,2.38,2.38,0,0,0,.71-.07l2,4.33,2.46,4.85h7.62l-1.67-2.31-.53-.61L708,105l-1.17-2a7.29,7.29,0,0,1-.35-.67l-1.59-3.52a15.54,15.54,0,0,0,1.27-.92l.07-.06c2.33-2.34,1.33-6.45,1.27-6.67A4.78,4.78,0,0,0,703,87.7c-2.44,0-4.19.68-5.15,2.14-1.24,1.87-.8,4.45-.35,6l-2-.19a10.43,10.43,0,0,1-1.28-.2l-1.2-.27a10,10,0,0,1-2.36-.83A8.92,8.92,0,0,1,685.53,87a9.57,9.57,0,0,1,.18-3.19,2.37,2.37,0,0,1,.08-.32A8.71,8.71,0,0,1,687,81.66,4.6,4.6,0,0,1,690.5,80h16V69h15.4v39.73H728V68.93h34.56v6.51H745.29a7.66,7.66,0,0,0-3.61.93,6.63,6.63,0,0,0-2.51,2.06,10.84,10.84,0,0,0-2.07,6.74,21.18,21.18,0,0,0,.82,5.93,26.75,26.75,0,0,0,2.6,5.89l1.27,2.13,1.4,2,3.49,3.94,2.3,2.23a2.85,2.85,0,0,0,.9.69l.51.19.5.17,4.65-4.79h-2a1.9,1.9,0,0,1-1.1-.37c-1.69-1.09-3.68-3.5-5.93-7.15a21.56,21.56,0,0,1-3.28-9.26,10.63,10.63,0,0,1,.09-2.66,5.45,5.45,0,0,1,.78-2c.92-1.47,3.58-1.51,3.88-1.51h14.54v28.13h6.07V68.93h11.69v39.73h6.07V68.93h8V63.84ZM620.82,68.93v13H607.48v-13Z"/><path class="cls-3" d="M528.36,63.84H521C519,52,513.35,47,508.87,45a13.18,13.18,0,0,0-13.36,1.28c-7.45,5.46-3.77,14.38-2.07,17.62h-98v5.08h22.79V78.4a6.45,6.45,0,0,1-1.47,3.6,5,5,0,0,1-3.43,1c-2,0-3.28-.54-4-1.63l-3.86-6.54-4.74,3.47,2,3.64,1.74,3,2.42,4,2.56,3.8a111.07,111.07,0,0,0,8.06,10.73c3.14,3.75,4.32,4.49,5,4.72l.47.16,4.07-3.75-2.41-2.42-4.26-4.68-2.28-2.86-4.73-6.79h1.15a10.93,10.93,0,0,0,3.61-.63c4.08-1.61,6.15-4.42,6.15-8.34v-10h12.43v39.72h6.07V68.93h11.41V84.52A10.18,10.18,0,0,0,458.38,93a14.7,14.7,0,0,0,9.1,3.06,12.32,12.32,0,0,0,7.78-2.61,18.23,18.23,0,0,0,4.85,7.14,19.62,19.62,0,0,0,7.84,4.57l-13.62,14.9,7.28.06,10.69-12.28,9.76,12.26h7.14l-12.4-14.33a17.47,17.47,0,0,0,7.27-3.12,17.07,17.07,0,0,0,4.43-4.88L509,97l-5-2.75-2.65,3.34a11.2,11.2,0,0,1-8.29,3.36,11.7,11.7,0,0,1-9-4,12.51,12.51,0,0,1-3.74-8.58,5.7,5.7,0,0,1,.41-2.44,7.43,7.43,0,0,1,3.48-3.67,8,8,0,0,1,1.26-.49,6.63,6.63,0,0,1,1.45-.1h15.54V68.93H515.3v39.72h6.07V68.93H538c.54.66,1.45,1.8,1.77,2.25a9.53,9.53,0,0,1,1.92,5.26A5.84,5.84,0,0,1,540,81.1a6.9,6.9,0,0,1-4.58,1.55,15,15,0,0,1-2.14-.22,1.54,1.54,0,0,1-.53-.21l-1.17-.5V83a15.51,15.51,0,0,0,5.14,11.88,16.3,16.3,0,0,0,11.47,4.28,15.88,15.88,0,0,0,9.23-2.86v12.35h6.07V68.93h6.64V63.84Zm19.57,12.84a17.6,17.6,0,0,0-.45-2.73c-.26-.86-1.25-3.08-1.39-3.38l-.68-1.28-.22-.37h12.2V88.39c-.44.64-1.28,1.86-1.63,2.29a10.41,10.41,0,0,1-2.47,2.07,9.78,9.78,0,0,1-5.71,1.75c-3.76,0-6.49-1.79-8.33-5.48l-.23-.46-.23-.62-.3-.6,2-.54c.16-.06,1.63-.6,2.15-.86a9.27,9.27,0,0,0,5.29-9.25ZM498.84,63.84a23.61,23.61,0,0,1-2.1-3.94,12.72,12.72,0,0,1-.9-3.34A7.73,7.73,0,0,1,496,54a6.15,6.15,0,0,1,.83-2,6.79,6.79,0,0,1,1.33-1.49,8.41,8.41,0,0,1,1.61-1.06,9.94,9.94,0,0,1,1.63-.65,6.27,6.27,0,0,1,4.06.44,16.9,16.9,0,0,1,3.06,1.56,14.38,14.38,0,0,1,2.34,1.89,13.79,13.79,0,0,1,1.71,2.1A14.56,14.56,0,0,1,513.73,57a15.79,15.79,0,0,1,.76,2.14,17.33,17.33,0,0,1,.42,2,15.86,15.86,0,0,1,.18,1.66v1.11H498.84ZM460.31,84.6v-11l13.32,14.16a11.1,11.1,0,0,1-.85,1,9.52,9.52,0,0,1-1.69,1.11,13.14,13.14,0,0,1-2,.69,18.32,18.32,0,0,1-2.1.23,5.6,5.6,0,0,1-2.51-.42c-.28-.13-.55-.28-.81-.42L463,89.6a3.32,3.32,0,0,1-.77-.46l-.08-.07A5.21,5.21,0,0,1,460.31,84.6Zm8.38-15.67H496.6v7.42H486a11.49,11.49,0,0,0-8.14,3.34,11.3,11.3,0,0,0-2.33,3.14l-13.39-13.9Z"/><polygon points="188.55 93.99 78.45 204.19 46.95 172.53 157.05 62.32 188.55 93.99"/><polygon class="cls-4" points="173.32 94.31 78.14 189.58 61.88 173.23 157.24 78.15 173.32 94.31"/><polygon points="226.71 131.25 116.6 241.46 85.1 209.79 195.21 99.59 226.71 131.25"/><polygon class="cls-5" points="211.47 131.58 116.3 226.84 100.03 210.49 195.4 115.42 211.47 131.58"/><rect class="cls-6" width="1285.2" height="253.44"/></svg>